# xmcd CD database file
#
# Track frame offsets:
#	150
#	22905
#	36229
#	48409
#	62047
#	92132
#	112281
#	131329
#	142916
#	163482
#	178170
#	202989
#
# Disc length: 2932 seconds
#
# Revision: 0
# Processed by: cddbd v1.4PL0 Copyright (c) Steve Scherf et al.
# Submitted via: CDex 1.50
#
DISCID=ab0b720c
DTITLE=Rebecca Sayre - This Is Always
DYEAR=2003
DGENRE=Jazz
TTITLE0=Everything I Love
TTITLE1=Sweet Sue, Just You
TTITLE2=Hey There
TTITLE3=Perdido
TTITLE4=What's Your Story, Morning Glory
TTITLE5=All About Ronnie
TTITLE6=Just in Time
TTITLE7=I Get a Kick Out of You
TTITLE8=This Is Always
TTITLE9=Who Cares?
TTITLE10=Out of This World
TTITLE11=In the Still of the Night
EXTD=YEAR: 2003
EXTT0=
EXTT1=
EXTT2=
EXTT3=
EXTT4=
EXTT5=
EXTT6=
EXTT7=
EXTT8=
EXTT9=
EXTT10=
EXTT11=
PLAYORDER=
